<svg xmlns="http://www.w3.org/2000/svg" version="1.1" xmlns:xlink="http://www.w3.org/1999/xlink" xmlns:svgjs="http://svgjs.dev/svgjs" viewBox="0 0 800 800"><defs><linearGradient x1="50%" y1="0%" x2="50%" y2="100%" id="ffflurry-grad" gradientTransform="rotate(270)"><stop stop-color="hsl(238, 82%, 13%)" stop-opacity="1" offset="0%"></stop><stop stop-color="hsl(1.4, 100%, 67%)" stop-opacity="1" offset="45%"></stop><stop stop-color="hsl(167, 52%, 78%)" stop-opacity="1" offset="100%"></stop></linearGradient></defs><rect width="100%" height="100%" fill="hsl(238, 82%, 13%)"></rect><g fill="url(#ffflurry-grad)"><rect width="307" height="3" x="71.5" y="734.5" rx="1.5" transform="rotate(45, 225, 736)" opacity="0.87"></rect><rect width="66" height="3" x="318" y="282.5" rx="1.5" transform="rotate(45, 351, 284)" opacity="0.22"></rect><rect width="648" height="3" x="-151" y="529.5" rx="1.5" transform="rotate(45, 173, 531)" opacity="0.81"></rect><rect width="377" height="3" x="130.5" y="371.5" rx="1.5" transform="rotate(45, 319, 373)" opacity="0.25"></rect><rect width="62" height="3" x="648" y="596.5" rx="1.5" transform="rotate(45, 679, 598)" opacity="0.57"></rect><rect width="376" height="3" x="163" y="523.5" rx="1.5" transform="rotate(45, 351, 525)" opacity="0.95"></rect><rect width="212" height="3" x="639" y="555.5" rx="1.5" transform="rotate(45, 745, 557)" opacity="0.15"></rect><rect width="207" height="3" x="337.5" y="745.5" rx="1.5" transform="rotate(45, 441, 747)" opacity="0.26"></rect><rect width="615" height="3" x="-260.5" y="520.5" rx="1.5" transform="rotate(45, 47, 522)" opacity="0.92"></rect><rect width="368" height="3" x="245" y="300.5" rx="1.5" transform="rotate(45, 429, 302)" opacity="0.27"></rect><rect width="557" height="3" x="368.5" y="749.5" rx="1.5" transform="rotate(45, 647, 751)" opacity="0.42"></rect><rect width="454" height="3" x="104" y="37.5" rx="1.5" transform="rotate(45, 331, 39)" opacity="0.10"></rect><rect width="480" height="3" x="406" y="31.5" rx="1.5" transform="rotate(45, 646, 33)" opacity="0.22"></rect><rect width="320" height="3" x="143" y="640.5" rx="1.5" transform="rotate(45, 303, 642)" opacity="0.29"></rect><rect width="284" height="3" x="609" y="709.5" rx="1.5" transform="rotate(45, 751, 711)" opacity="0.79"></rect><rect width="310" height="3" x="255" y="418.5" rx="1.5" transform="rotate(45, 410, 420)" opacity="0.28"></rect><rect width="132" height="3" x="-23" y="373.5" rx="1.5" transform="rotate(45, 43, 375)" opacity="0.07"></rect><rect width="179" height="3" x="446.5" y="767.5" rx="1.5" transform="rotate(45, 536, 769)" opacity="0.91"></rect><rect width="233" height="3" x="291.5" y="49.5" rx="1.5" transform="rotate(45, 408, 51)" opacity="0.96"></rect><rect width="439" height="3" x="-121.5" y="194.5" rx="1.5" transform="rotate(45, 98, 196)" opacity="0.52"></rect><rect width="142" height="3" x="359" y="646.5" rx="1.5" transform="rotate(45, 430, 648)" opacity="0.53"></rect><rect width="417" height="3" x="424.5" y="303.5" rx="1.5" transform="rotate(45, 633, 305)" opacity="0.28"></rect><rect width="243" height="3" x="264.5" y="771.5" rx="1.5" transform="rotate(45, 386, 773)" opacity="0.45"></rect><rect width="124" height="3" x="214" y="503.5" rx="1.5" transform="rotate(45, 276, 505)" opacity="0.82"></rect><rect width="77" height="3" x="564.5" y="386.5" rx="1.5" transform="rotate(45, 603, 388)" opacity="0.18"></rect><rect width="123" height="3" x="253.5" y="445.5" rx="1.5" transform="rotate(45, 315, 447)" opacity="0.88"></rect><rect width="138" height="3" x="290" y="190.5" rx="1.5" transform="rotate(45, 359, 192)" opacity="0.70"></rect><rect width="514" height="3" x="489" y="56.5" rx="1.5" transform="rotate(45, 746, 58)" opacity="0.59"></rect><rect width="380" height="3" x="42" y="366.5" rx="1.5" transform="rotate(45, 232, 368)" opacity="0.78"></rect><rect width="185" height="3" x="496.5" y="569.5" rx="1.5" transform="rotate(45, 589, 571)" opacity="0.74"></rect><rect width="286" height="3" x="-36" y="290.5" rx="1.5" transform="rotate(45, 107, 292)" opacity="0.66"></rect><rect width="57" height="3" x="447.5" y="75.5" rx="1.5" transform="rotate(45, 476, 77)" opacity="0.68"></rect><rect width="171" height="3" x="335.5" y="535.5" rx="1.5" transform="rotate(45, 421, 537)" opacity="0.99"></rect><rect width="500" height="3" x="113" y="696.5" rx="1.5" transform="rotate(45, 363, 698)" opacity="0.78"></rect><rect width="176" height="3" x="451" y="40.5" rx="1.5" transform="rotate(45, 539, 42)" opacity="0.82"></rect><rect width="429" height="3" x="286.5" y="709.5" rx="1.5" transform="rotate(45, 501, 711)" opacity="0.51"></rect><rect width="456" height="3" x="514" y="257.5" rx="1.5" transform="rotate(45, 742, 259)" opacity="0.18"></rect><rect width="77" height="3" x="85.5" y="444.5" rx="1.5" transform="rotate(45, 124, 446)" opacity="0.24"></rect><rect width="176" height="3" x="557" y="466.5" rx="1.5" transform="rotate(45, 645, 468)" opacity="0.73"></rect><rect width="560" height="3" x="239" y="347.5" rx="1.5" transform="rotate(45, 519, 349)" opacity="0.72"></rect><rect width="480" height="3" x="-55" y="109.5" rx="1.5" transform="rotate(45, 185, 111)" opacity="0.76"></rect><rect width="467" height="3" x="-20.5" y="439.5" rx="1.5" transform="rotate(45, 213, 441)" opacity="0.14"></rect><rect width="538" height="3" x="95" y="602.5" rx="1.5" transform="rotate(45, 364, 604)" opacity="0.41"></rect><rect width="144" height="3" x="104" y="215.5" rx="1.5" transform="rotate(45, 176, 217)" opacity="0.73"></rect><rect width="441" height="3" x="56.5" y="283.5" rx="1.5" transform="rotate(45, 277, 285)" opacity="0.31"></rect><rect width="431" height="3" x="7.5" y="662.5" rx="1.5" transform="rotate(45, 223, 664)" opacity="0.40"></rect><rect width="810" height="3" x="-359" y="717.5" rx="1.5" transform="rotate(45, 46, 719)" opacity="0.60"></rect><rect width="886" height="3" x="-394" y="71.5" rx="1.5" transform="rotate(45, 49, 73)" opacity="0.72"></rect><rect width="201" height="3" x="526.5" y="229.5" rx="1.5" transform="rotate(45, 627, 231)" opacity="0.40"></rect><rect width="288" height="3" x="359" y="628.5" rx="1.5" transform="rotate(45, 503, 630)" opacity="0.34"></rect><rect width="61" height="3" x="393.5" y="157.5" rx="1.5" transform="rotate(45, 424, 159)" opacity="0.75"></rect><rect width="544" height="3" x="287" y="500.5" rx="1.5" transform="rotate(45, 559, 502)" opacity="0.34"></rect><rect width="356" height="3" x="418" y="168.5" rx="1.5" transform="rotate(45, 596, 170)" opacity="0.23"></rect><rect width="90" height="3" x="587" y="107.5" rx="1.5" transform="rotate(45, 632, 109)" opacity="0.73"></rect><rect width="353" height="3" x="91.5" y="101.5" rx="1.5" transform="rotate(45, 268, 103)" opacity="0.09"></rect><rect width="501" height="3" x="-103.5" y="358.5" rx="1.5" transform="rotate(45, 147, 360)" opacity="0.26"></rect><rect width="519" height="3" x="-225.5" y="227.5" rx="1.5" transform="rotate(45, 34, 229)" opacity="0.98"></rect><rect width="547" height="3" x="460.5" y="360.5" rx="1.5" transform="rotate(45, 734, 362)" opacity="0.36"></rect><rect width="405" height="3" x="113.5" y="134.5" rx="1.5" transform="rotate(45, 316, 136)" opacity="0.58"></rect><rect width="576" height="3" x="-145" y="740.5" rx="1.5" transform="rotate(45, 143, 742)" opacity="0.42"></rect><rect width="228" height="3" x="126" y="40.5" rx="1.5" transform="rotate(45, 240, 42)" opacity="0.34"></rect><rect width="339" height="3" x="582.5" y="456.5" rx="1.5" transform="rotate(45, 752, 458)" opacity="0.80"></rect><rect width="369" height="3" x="326.5" y="155.5" rx="1.5" transform="rotate(45, 511, 157)" opacity="0.17"></rect><rect width="134" height="3" x="136" y="287.5" rx="1.5" transform="rotate(45, 203, 289)" opacity="0.11"></rect><rect width="124" height="3" x="248" y="750.5" rx="1.5" transform="rotate(45, 310, 752)" opacity="0.75"></rect><rect width="595" height="3" x="213.5" y="249.5" rx="1.5" transform="rotate(45, 511, 251)" opacity="0.34"></rect><rect width="418" height="3" x="355" y="669.5" rx="1.5" transform="rotate(45, 564, 671)" opacity="0.22"></rect><rect width="504" height="3" x="-103" y="32.5" rx="1.5" transform="rotate(45, 149, 34)" opacity="0.74"></rect><rect width="51" height="3" x="469.5" y="449.5" rx="1.5" transform="rotate(45, 495, 451)" opacity="0.12"></rect><rect width="194" height="3" x="150" y="576.5" rx="1.5" transform="rotate(45, 247, 578)" opacity="0.95"></rect><rect width="486" height="3" x="245" y="556.5" rx="1.5" transform="rotate(45, 488, 558)" opacity="0.97"></rect><rect width="338" height="3" x="83" y="196.5" rx="1.5" transform="rotate(45, 252, 198)" opacity="0.35"></rect><rect width="273" height="3" x="-6.5" y="138.5" rx="1.5" transform="rotate(45, 130, 140)" opacity="0.36"></rect><rect width="494" height="3" x="388" y="654.5" rx="1.5" transform="rotate(45, 635, 656)" opacity="0.92"></rect><rect width="119" height="3" x="680.5" y="159.5" rx="1.5" transform="rotate(45, 740, 161)" opacity="0.17"></rect><rect width="582" height="3" x="-182" y="618.5" rx="1.5" transform="rotate(45, 109, 620)" opacity="0.17"></rect><rect width="73" height="3" x="204.5" y="779.5" rx="1.5" transform="rotate(45, 241, 781)" opacity="0.47"></rect></g></svg>